<svg width="23" height="23" viewBox="0 0 23 23" fill="none" xmlns="http://www.w3.org/2000/svg">
<g id="edit-2">
<path id="&#240;&#159;&#142;&#168; Icon &#208;&#161;olor" fill-rule="evenodd" clip-rule="evenodd" d="M4.49387 16.6595C4.30207 16.4677 4.20617 16.201 4.22992 15.9306L4.57607 12.122C4.61443 11.7046 4.79893 11.311 5.09667 11.0132L13.313 2.79689C13.9542 2.15299 15.1169 2.18496 15.7936 2.85991L18.2943 5.36062L18.2953 5.36153C18.994 6.06115 19.0223 7.17359 18.3574 7.84032L10.1401 16.0576C9.84327 16.3544 9.44962 16.5389 9.03131 16.5773L5.22271 16.9234C5.19531 16.9252 5.16791 16.9262 5.1396 16.9262C4.89939 16.9262 4.66649 16.8312 4.49387 16.6595ZM15.2036 8.41298L12.7422 5.95155L14.5214 4.17146L16.9819 6.63198L15.2036 8.41298ZM8.86599 14.757L6.147 15.0045L6.38812 12.3047L11.5183 7.1745L13.9807 9.63776L8.86599 14.757ZM17.9263 20.5795C18.4286 20.5795 18.8396 20.1685 18.8396 19.6662C18.8396 19.1647 18.4286 18.7528 17.9263 18.7528H5.13959C4.63817 18.7528 4.22626 19.1647 4.22626 19.6662C4.22626 20.1685 4.63817 20.5795 5.13959 20.5795H17.9263Z" fill="#FF993A"/>
</g>
</svg>
