<svg width="43" height="43" viewBox="0 0 43 43" fill="none" xmlns="http://www.w3.org/2000/svg">
<circle cx="21.5" cy="21.5" r="21.5" fill="white"/>
<path d="M21.5239 10.6425C17.5703 10.6425 14.3572 13.8555 14.3572 17.8092V21.2611C14.3572 21.9897 14.0467 23.1005 13.6764 23.7217L12.3028 26.003C11.4547 27.4125 12.04 28.9772 13.5928 29.5028C18.7409 31.2228 24.295 31.2228 29.4431 29.5028C30.8884 29.025 31.5214 27.3169 30.7331 26.003L29.3595 23.7217C29.0011 23.1005 28.6906 21.9897 28.6906 21.2611V17.8092C28.6906 13.8675 25.4656 10.6425 21.5239 10.6425Z" stroke="#292D32" stroke-width="1.5" stroke-miterlimit="10" stroke-linecap="round"/>
<path d="M23.7337 10.9889C23.3634 10.8814 22.9812 10.7978 22.587 10.75C21.4403 10.6067 20.3414 10.6903 19.3142 10.9889C19.6606 10.105 20.5206 9.48389 21.5239 9.48389C22.5273 9.48389 23.3873 10.105 23.7337 10.9889Z" stroke="#292D32" stroke-width="1.5" stroke-miterlimit="10" stroke-linecap="round" stroke-linejoin="round"/>
<path d="M25.1073 29.9328C25.1073 31.9036 23.4948 33.5161 21.524 33.5161C20.5446 33.5161 19.6368 33.11 18.9918 32.465C18.3468 31.82 17.9407 30.9122 17.9407 29.9328" stroke="#292D32" stroke-width="1.5" stroke-miterlimit="10"/>
<circle cx="28" cy="14" r="4" fill="#FFD700"/>
</svg>
